<?xml version="1.0" encoding="UTF-8"?>
<svg version="1.1" xmlns="http://www.w3.org/2000/svg" width="1100" height="800">
<path d="M0 0 C5.8812416 4.57429902 6.30130352 9.71250572 7.25 16.75 C7.90827791 22.04207019 8.4662822 27.34350857 9 32.64941406 C9.24330356 35.05868957 9.49609 37.46682238 9.75 39.875 C12.53875917 66.83209787 13.72437183 93.85349805 14.71972656 120.92279053 C14.96670087 127.61725656 15.22137828 134.31143287 15.47645378 141.00559425 C15.56285477 143.2927078 15.64694253 145.57989612 15.73060608 147.86711121 C16.008329 155.32348706 16.35662327 162.76941194 16.79760742 170.21801758 C17.15666051 176.36912709 17.34892186 182.46274303 17.171875 188.625 C17.14463356 190.30727267 17.11862888 191.98956574 17.09375 193.671875 C17.05072694 196.21219129 16.99996156 198.75135153 16.92773438 201.29101562 C16.60374262 213.31573808 18.02784575 223.39646199 21.67089844 234.85150146 C22.94139212 239.01662647 23.68058106 243.27068994 24.375 247.5625 C24.53766357 248.52333496 24.70032715 249.48416992 24.86791992 250.47412109 C25.8865272 256.9773437 26.49042199 263.45674609 26.91796875 270.01953125 C26.97315674 270.83023575 27.02834473 271.64094025 27.08520508 272.47621155 C27.35656581 276.5105358 27.59385892 280.54177884 27.77197266 284.58129883 C28.28778446 293.90546508 29.98804987 300.68887359 34.68041992 308.80932617 C36.89071992 312.95041552 37.25 316.08978574 37.25 320.75 C36.92 321.74 36.59 322.73 36.25 323.75 C36.8795459 323.59764893 37.5090918 323.44529785 38.15771484 323.28833008 C42.33680246 322.56080061 46.49441512 322.36444147 50.7265625 322.13671875 C52.67710401 322.02420234 54.62762395 321.91131137 56.578125 321.7980957 C58.11823242 321.71019272 58.11823242 321.71019272 59.68945312 321.62051392 C79.40106456 320.48805555 99.04377836 318.98362871 118.68994141 317.02026367 C119.54617096 316.93573944 120.40240051 316.85121521 121.28457642 316.76412964 C122.86127961 316.60770254 124.43763918 316.44774591 126.01351929 316.28323364 C139.20694124 314.96770593 139.20694124 314.96770593 142.25 317.25 C142.58 317.745 142.91 318.24 143.25 318.75 C142.22183402 322.13996753 141.14080597 322.81059096 137.9765625 324.56640625 C136.61652334 325.16495076 135.24875943 325.74615465 133.875 326.3125 C133.15836182 326.61623535 132.44172363 326.9199707 131.70336914 327.23291016 C120.75324935 331.74859952 109.7258703 333.74843356 97.90649414 334.13549805 C96.24023586 334.19665385 94.57398135 334.25791245 92.9077301 334.31925964 C92.03308168 334.35023428 91.15843327 334.38120892 90.25728035 334.41312218 C85.57132399 334.58284965 80.88633936 334.77672582 76.20117188 334.96679688 C70.26403564 335.20683958 64.32694106 335.43981582 58.38842773 335.64331055 C53.56813819 335.80913048 48.7495231 336.00157189 43.93093681 336.21094704 C42.11078384 336.28535634 40.29022227 336.3504652 38.46937752 336.40540123 C27.62790392 336.7381114 18.66608008 338.05937925 8.69090271 342.43269348 C5.20739339 343.76631141 2.39134158 344.14247586 -1.3125 344.3125 C-4.30870847 344.80325137 -4.30870847 344.80325137 -6.75 346.75 C-9.3715445 351.46508778 -10.5971487 356.77010302 -12.02734375 361.9375 C-13.63007091 367.67700888 -15.88704444 372.9051028 -18.5 378.25 C-18.87729248 379.03181641 -19.25458496 379.81363281 -19.64331055 380.61914062 C-21.5170717 384.43961761 -23.48720193 388.14098029 -25.75 391.75 C-25.16734375 391.90855469 -24.5846875 392.06710937 -23.984375 392.23046875 C-17.0006556 394.2179738 -10.40466812 396.85716317 -3.75 399.75 C-5.27086898 404.61494835 -8.06705903 407.81356798 -11.375 411.5625 C-11.91697021 412.18342529 -12.45894043 412.80435059 -13.01733398 413.4440918 C-34.21503241 437.55257538 -63.52013629 458.9774835 -95.3125 465.3125 C-96.781616 465.61340921 -98.25069093 465.91451901 -99.71972656 466.21582031 C-133.62503923 473.09162545 -167.95046491 476.75150053 -202.54080391 477.01036072 C-205.39882995 477.03187032 -208.25676337 477.05883771 -211.11473083 477.08703613 C-218.20485576 477.15593234 -225.29505025 477.21592541 -232.38525391 477.27606201 C-238.40678449 477.32747584 -244.42826361 477.38242951 -250.44972038 477.44187927 C-253.2344129 477.46798144 -256.01911206 477.48906825 -258.80384827 477.5098877 C-267.97560309 477.59164989 -277.08791454 477.85857601 -286.23709106 478.52130127 C-292.50745552 478.92951692 -298.78057699 478.99359343 -305.0625 479 C-305.76855377 479.00100708 -306.47460754 479.00201416 -307.20205688 479.00305176 C-332.86671386 478.97898771 -358.59075439 476.94687462 -384.0625 473.875 C-385.25770264 473.73803711 -386.45290527 473.60107422 -387.68432617 473.45996094 C-399.984168 471.83808076 -411.10855925 467.52558819 -422 461.6875 C-422.88623047 461.21634766 -423.77246094 460.74519531 -424.68554688 460.25976562 C-438.88820046 452.56539441 -451.71470205 443.49224941 -463.75 432.75 C-465.03003906 431.65171875 -465.03003906 431.65171875 -466.3359375 430.53125 C-470.92153443 426.57026927 -475.01855117 422.53390875 -478.75 417.75 C-478.75 417.09 -478.75 416.43 -478.75 415.75 C-476.62717331 414.74539469 -474.50166979 413.74644398 -472.375 412.75 C-471.19164062 412.193125 -470.00828125 411.63625 -468.7890625 411.0625 C-465.75 409.75 -465.75 409.75 -463.75 409.75 C-464.20270264 408.93716553 -464.20270264 408.93716553 -464.66455078 408.10791016 C-480.75 378.9848456 -480.75 378.9848456 -480.75 367.75 C-481.91402344 367.60304688 -481.91402344 367.60304688 -483.1015625 367.453125 C-492.61832374 366.13576903 -501.64197215 363.78600928 -510.75 360.75 C-522.17600753 359.58635134 -533.72874749 359.38875164 -545.1991272 358.93487549 C-615.31844828 356.12227506 -615.31844828 356.12227506 -637.75 344.75 C-637 340 -637 340 -634.75 337.75 C-631.51991968 337.83323299 -628.39893539 338.06025625 -625.1875 338.375 C-622.92063787 338.5762538 -620.65370377 338.7766977 -618.38671875 338.9765625 C-617.42301865 339.06384613 -617.42301865 339.06384613 -616.43984985 339.15289307 C-607.20741501 339.98900839 -597.96713727 340.73252573 -588.72769165 341.48635864 C-585.5002412 341.7499803 -582.27294567 342.01544466 -579.0456543 342.28100586 C-566.0404735 343.3467193 -553.03461644 344.3450889 -540.01074219 345.15429688 C-538.97079102 345.22068359 -537.93083984 345.28707031 -536.859375 345.35546875 C-535.54404785 345.43510864 -535.54404785 345.43510864 -534.20214844 345.51635742 C-531.66650669 345.75795531 -529.23725734 346.20782691 -526.75 346.75 C-527.08 346.09 -527.41 345.43 -527.75 344.75 C-528.98373027 336.68623723 -527.77626456 331.21316723 -523.73828125 324.3828125 C-519.36498614 316.31133202 -518.8064474 309.56993271 -519.26156616 300.52798462 C-519.45726971 296.59785516 -519.5105651 292.66435278 -519.58984375 288.73046875 C-519.60946671 287.95555588 -519.62908966 287.18064301 -519.64930725 286.38224792 C-519.97815888 272.23127785 -518.39579187 258.23427071 -515.72436523 244.35620117 C-514.37162844 237.1814695 -514.43965897 230.47374101 -515.21850586 223.25073242 C-516.06690577 214.06293727 -516.22216684 204.8319782 -516.50390625 195.61328125 C-516.56989922 193.51550589 -516.63596116 191.41773271 -516.7020874 189.31996155 C-516.91272599 182.5676834 -517.11361699 175.81513335 -517.3125 169.0625 C-517.34644741 167.91696907 -517.38039482 166.77143814 -517.41537094 165.59119415 C-518.27662644 136.43789533 -519.05129608 107.2924664 -519.0625 78.125 C-519.06581329 76.89359283 -519.06912659 75.66218567 -519.07254028 74.39346313 C-519.09365913 61.35274117 -518.74539746 48.36754149 -517.91796875 35.3515625 C-517.8146801 33.56895523 -517.8146801 33.56895523 -517.70930481 31.75033569 C-517.63016342 30.64501495 -517.55102203 29.53969421 -517.46948242 28.40087891 C-517.40339279 27.42825104 -517.33730316 26.45562317 -517.26921082 25.45352173 C-516.50921685 21.49624633 -514.78100263 18.76564962 -511.93017578 15.95727539 C-504.11469909 11.62944423 -491.22250993 15.34280097 -482.875 16.8125 C-481.58634033 17.03437988 -480.29768066 17.25625977 -478.9699707 17.48486328 C-431.35387105 25.83166629 -380.12951031 38.37629056 -338.1340332 63.11010742 C-331.84302771 66.686925 -326.53277222 66.01851441 -319.71229553 64.79902649 C-296.34686978 60.67052499 -272.95444637 60.42543821 -249.30493164 60.48925781 C-245.04048897 60.50066061 -240.77629594 60.49388714 -236.5118618 60.48235321 C-219.97177452 60.44466219 -203.57763576 60.52233262 -187.11352539 62.32128906 C-179.29452108 63.40814588 -179.29452108 63.40814588 -172.12890625 60.87890625 C-171.51273438 60.47422119 -170.8965625 60.06953613 -170.26171875 59.65258789 C-169.61847656 59.21035889 -168.97523438 58.76812988 -168.3125 58.3125 C-166.88845576 57.38275074 -165.46262682 56.4557301 -164.03515625 55.53125 C-162.95838623 54.82742188 -162.95838623 54.82742188 -161.85986328 54.109375 C-133.5919659 35.89650152 -34.26363419 -15.57437918 0 0 Z " fill="#E0A7E0" transform="translate(790.75,252.25)"/>
<path d="M0 0 C5.8812416 4.57429902 6.30130352 9.71250572 7.25 16.75 C7.90827791 22.04207019 8.4662822 27.34350857 9 32.64941406 C9.24330356 35.05868957 9.49609 37.46682238 9.75 39.875 C12.53875917 66.83209787 13.72437183 93.85349805 14.71972656 120.92279053 C14.96670087 127.61725656 15.22137828 134.31143287 15.47645378 141.00559425 C15.56285477 143.2927078 15.64694253 145.57989612 15.73060608 147.86711121 C16.008329 155.32348706 16.35662327 162.76941194 16.79760742 170.21801758 C17.15666051 176.36912709 17.34892186 182.46274303 17.171875 188.625 C17.14463356 190.30727267 17.11862888 191.98956574 17.09375 193.671875 C17.05072694 196.21219129 16.99996156 198.75135153 16.92773438 201.29101562 C16.6038428 213.31202024 18.03742156 223.37029785 21.66766357 234.8223877 C22.98333119 239.17742538 23.72315999 243.63953324 24.4375 248.125 C24.67774902 249.59453125 24.67774902 249.59453125 24.92285156 251.09375 C27.23315638 266.11308399 28.47357091 281.54717843 28.25 296.75 C27.7653125 296.37488281 27.280625 295.99976563 26.78125 295.61328125 C24.62292619 293.96548403 22.44129237 292.35366206 20.25 290.75 C19.34894531 290.07130859 19.34894531 290.07130859 18.4296875 289.37890625 C14.1718965 286.42057095 9.97601256 284.97771774 4.9765625 283.6015625 C3.71666504 283.25174316 2.45676758 282.90192383 1.15869141 282.54150391 C0.19882324 282.28030762 -0.76104492 282.01911133 -1.75 281.75 C-3.40962118 248.4984984 -4.98237083 215.27215286 -5.61384583 181.9823761 C-5.75161956 175.01503769 -6.04679055 168.05888994 -6.37988281 161.09838867 C-6.65819286 154.93573321 -6.8207914 148.77686803 -6.9296875 142.609375 C-7.30016015 122.02846855 -8.00108042 101.49221113 -9.125 80.9375 C-9.18226257 79.83781891 -9.23952515 78.73813782 -9.29852295 77.60513306 C-10.2434684 54.45607528 -10.2434684 54.45607528 -14.28964233 31.71452332 C-14.98836999 28.73278352 -14.80860565 25.79749402 -14.75 22.75 C-20.43488862 24.69980984 -26.09596367 26.7125266 -31.75 28.75 C-32.77947754 29.1202832 -33.80895508 29.49056641 -34.86962891 29.87207031 C-49.53226037 35.18621854 -63.8752219 40.96594176 -78.0625 47.4375 C-78.73361816 47.74315887 -79.40473633 48.04881775 -80.09619141 48.36373901 C-90.09535737 52.93321895 -99.94652021 57.77607598 -109.75 62.75 C-110.68755127 63.22429443 -111.62510254 63.69858887 -112.59106445 64.18725586 C-129.74880199 72.92121037 -146.47418959 82.46445827 -162.75 92.75 C-162.67998779 93.5438208 -162.60997559 94.3376416 -162.5378418 95.15551758 C-161.72352656 105.26065849 -161.55348947 115.30440506 -161.5625 125.4375 C-161.56141235 126.68868622 -161.56141235 126.68868622 -161.56030273 127.96514893 C-161.56145836 139.99379811 -161.90258146 151.84074836 -163.75 163.75 C-172.74741812 165.65892888 -181.66580618 167.03996757 -190.83203125 167.8515625 C-191.79161743 167.93962158 -192.75120361 168.02768066 -193.73986816 168.1184082 C-196.07629259 168.33233183 -198.41297099 168.54280457 -200.75 168.75 C-200.77505615 167.44893311 -200.8001123 166.14786621 -200.82592773 164.80737305 C-201.34265927 138.11730807 -201.92440891 111.43240131 -202.75 84.75 C-207.7 84.75 -212.65 84.75 -217.75 84.75 C-217.58628906 87.17988281 -217.42257812 89.60976563 -217.25390625 92.11328125 C-216.41802505 106.60687297 -216.63798946 121.13818466 -216.68133545 135.64971924 C-216.69172481 139.50540611 -216.69616588 143.36109992 -216.70117188 147.21679688 C-216.71176813 154.72788301 -216.7287435 162.23893564 -216.75 169.75 C-220.88925305 170.18713861 -225.02943136 170.61377757 -229.1706543 171.03173828 C-230.57197459 171.17453782 -231.97303257 171.3199415 -233.3737793 171.46826172 C-243.21024023 172.50739917 -252.85530561 172.9430149 -262.75 172.75 C-262.76981934 171.57646973 -262.78963867 170.40293945 -262.81005859 169.19384766 C-263.29859374 141.01353909 -264.25417886 112.89467343 -265.75 84.75 C-273.67 84.75 -281.59 84.75 -289.75 84.75 C-288.75398731 102.11469488 -287.05179113 119.12711785 -284.29980469 136.30322266 C-283.33307005 142.36377309 -282.41499571 148.43146186 -281.5 154.5 C-281.32484863 155.6247876 -281.14969727 156.7495752 -280.96923828 157.90844727 C-280.15991859 163.2513428 -279.53381175 168.34529371 -279.75 173.75 C-293.03293227 174.03261558 -306.80719146 174.16342908 -319.75 170.75 C-319.92015625 169.8113208 -320.0903125 168.8726416 -320.265625 167.90551758 C-323.91605852 147.8999745 -328.13260564 128.31739922 -333.86523438 108.79638672 C-335.2203223 104.13060661 -336.48910148 99.44197479 -337.75 94.75 C-338.6884375 95.01296875 -339.626875 95.2759375 -340.59375 95.546875 C-346.13451798 96.31858517 -350.45787107 93.47445749 -355.25 91 C-357.33071241 89.96871619 -359.41144202 88.93746708 -361.4921875 87.90625 C-363.57857673 86.85506278 -365.66453138 85.80301245 -367.75 84.75 C-408.37531489 64.3862874 -451.07095147 49.95912864 -494.75 37.75 C-494.84087891 39.34714844 -494.84087891 39.34714844 -494.93359375 40.9765625 C-495.01817925 42.44271121 -495.1028176 43.90885688 -495.1875 45.375 C-495.22681641 46.06851563 -495.26613281 46.76203125 -495.30664062 47.4765625 C-495.5063948 50.91848058 -495.71765076 54.35560513 -495.99951172 57.79199219 C-496.80352707 67.78620829 -496.99137203 77.72934208 -497 87.75 C-497.00200912 89.17138779 -497.00200912 89.17138779 -497.00405884 90.62149048 C-496.99795293 111.27104851 -496.08679212 131.87485917 -495.1353302 152.49706078 C-494.960285 156.29356667 -494.78630888 160.09012038 -494.61328125 163.88671875 C-494.57794533 164.66144909 -494.54260941 165.43617943 -494.5062027 166.23438644 C-493.52435258 187.8993888 -492.82989792 209.57455011 -492.125 231.25 C-492.06222068 233.17377777 -491.99942587 235.09755504 -491.93661499 237.02133179 C-491.64372304 246.00242275 -491.35356983 254.98359919 -491.06542969 263.96484375 C-490.63978234 277.22698918 -490.19626565 290.48853393 -489.75 303.75 C-491.08260864 303.94480957 -491.08260864 303.94480957 -492.44213867 304.14355469 C-493.6097876 304.31790039 -494.77743652 304.49224609 -495.98046875 304.671875 C-497.13699951 304.84299805 -498.29353027 305.01412109 -499.48510742 305.19042969 C-507.34835866 306.53811322 -512.62268944 309.71452403 -518.75 314.75 C-521.21750647 291.39681376 -520.16756841 267.40416651 -515.72436523 244.35961914 C-514.37361562 237.1830431 -514.43947757 230.47542334 -515.21850586 223.25073242 C-516.06690577 214.06293727 -516.22216684 204.8319782 -516.50390625 195.61328125 C-516.56989922 193.51550589 -516.63596116 191.41773271 -516.7020874 189.31996155 C-516.91272599 182.5676834 -517.11361699 175.81513335 -517.3125 169.0625 C-517.36342112 167.34420361 -517.36342112 167.34420361 -517.41537094 165.59119415 C-518.27662644 136.43789533 -519.05129608 107.2924664 -519.0625 78.125 C-519.06581329 76.89359283 -519.06912659 75.66218567 -519.07254028 74.39346313 C-519.09365913 61.35274117 -518.74539746 48.36754149 -517.91796875 35.3515625 C-517.8146801 33.56895523 -517.8146801 33.56895523 -517.70930481 31.75033569 C-517.63016342 30.64501495 -517.55102203 29.53969421 -517.46948242 28.40087891 C-517.40339279 27.42825104 -517.33730316 26.45562317 -517.26921082 25.45352173 C-516.50921685 21.49624633 -514.78100263 18.76564962 -511.93017578 15.95727539 C-504.11469909 11.62944423 -491.22250993 15.34280097 -482.875 16.8125 C-481.58634033 17.03437988 -480.29768066 17.25625977 -478.9699707 17.48486328 C-431.35387105 25.83166629 -380.12951031 38.37629056 -338.1340332 63.11010742 C-331.84302771 66.686925 -326.53277222 66.01851441 -319.71229553 64.79902649 C-296.34686978 60.67052499 -272.95444637 60.42543821 -249.30493164 60.48925781 C-245.04048897 60.50066061 -240.77629594 60.49388714 -236.5118618 60.48235321 C-219.97177452 60.44466219 -203.57763576 60.52233262 -187.11352539 62.32128906 C-179.29452108 63.40814588 -179.29452108 63.40814588 -172.12890625 60.87890625 C-171.51273438 60.47422119 -170.8965625 60.06953613 -170.26171875 59.65258789 C-169.61847656 59.21035889 -168.97523438 58.76812988 -168.3125 58.3125 C-166.88845576 57.38275074 -165.46262682 56.4557301 -164.03515625 55.53125 C-162.95838623 54.82742188 -162.95838623 54.82742188 -161.85986328 54.109375 C-133.5919659 35.89650152 -34.26363419 -15.57437918 0 0 Z " fill="#382E38" transform="translate(790.75,252.25)"/>
<path d="M0 0 C0.71196533 0.14920898 1.42393066 0.29841797 2.1574707 0.45214844 C6.56106765 1.49405428 8.8574758 2.62160955 11.6875 6.125 C12.9707774 8.84389195 13.90928454 11.65161984 14.8515625 14.50390625 C15.12970795 15.3123851 15.40785339 16.12086395 15.69442749 16.95384216 C16.5781836 19.52810613 17.44611077 22.10734474 18.3125 24.6875 C19.18856776 27.27026507 20.06795722 29.85182181 20.95199585 32.43186951 C21.50037105 34.0349608 22.04371643 35.63978354 22.58145142 37.24647522 C23.69467257 40.52312402 24.75699005 43.22923507 26.6875 46.125 C27.78513672 45.86807373 28.88277344 45.61114746 30.01367188 45.34643555 C34.16536212 44.37563018 38.3181241 43.4094758 42.47119141 42.44458008 C44.2537042 42.02979259 46.0359409 41.61381647 47.81787109 41.1965332 C59.06534849 38.563673 70.3070091 36.11673499 81.6875 34.125 C82.60474854 33.96298096 83.52199707 33.80096191 84.46704102 33.6340332 C86.91961321 33.268603 88.34650003 33.29153114 90.6875 34.125 C103.24487137 43.83632353 111.83326669 63.41728135 114.40234375 78.70703125 C115.43881703 87.49575672 115.43881703 87.49575672 114.6875 91.125 C111.35949981 95.2259827 107.15782385 97.15599925 102.51171875 99.42578125 C101.70950394 99.8252446 100.90728912 100.22470795 100.08076477 100.63627625 C97.51583574 101.9108906 94.94547399 103.17411216 92.375 104.4375 C90.68910722 105.27469442 89.00355691 106.11257886 87.31835938 106.95117188 C77.5073429 111.82031116 67.6384212 116.54879607 57.6875 121.125 C58.67222755 124.11228273 59.66611041 127.07033771 60.8125 130 C62.06837353 134.48526261 62.77167302 139.11403391 60.4765625 143.37109375 C59.29330026 147.50079614 61.08196418 150.41278202 62.8125 154.125 C63.47957913 155.64524769 64.14231218 157.1674095 64.80078125 158.69140625 C65.28925537 159.81699951 65.28925537 159.81699951 65.78759766 160.96533203 C70.35436859 171.92508668 74.84019497 186.13923226 72.6875 198.125 C69.95356106 200.61434966 67.58053085 201.63584655 63.99609375 202.40625 C63.06466553 202.60710205 62.1332373 202.8079541 61.17358398 203.01489258 C60.16755127 203.21622803 59.16151855 203.41756348 58.125 203.625 C57.07449463 203.83858154 56.02398926 204.05216309 54.94165039 204.2722168 C15.81868401 211.88945979 15.81868401 211.88945979 2.6875 209.125 C-6.90878499 201.44515372 -10.50177622 187.61230587 -13.3125 176.125 C-14.03953125 177.35863281 -14.03953125 177.35863281 -14.78125 178.6171875 C-20.36183295 187.91100449 -26.3061766 196.70450514 -34.3125 204.125 C-35.0034375 204.7746875 -35.694375 205.424375 -36.40625 206.09375 C-44.52644583 213.56433016 -44.52644583 213.56433016 -49.3125 215.125 C-61.72456981 214.15647114 -71.89702991 206.80491185 -80.3125 198.125 C-81.18841797 197.26261719 -81.18841797 197.26261719 -82.08203125 196.3828125 C-89.86656338 188.14500382 -92.71328037 177.78411438 -92.67578125 166.734375 C-92.00478993 160.06775156 -89.28733672 154.07467345 -86.3125 148.125 C-87.37984375 148.36476562 -87.37984375 148.36476562 -88.46875 148.609375 C-101.27467871 150.93132911 -115.41890681 148.30019689 -126.3125 141.125 C-134.62815334 134.46057657 -141.30935836 124.708265 -143.3125 114.125 C-144.16748171 104.69645171 -143.78624499 95.36128419 -137.79296875 87.6796875 C-134.06449193 83.50284955 -129.70512498 81.12276126 -124.75 78.625 C-123.37593994 77.92008423 -123.37593994 77.92008423 -121.97412109 77.20092773 C-107.82524233 70.1602969 -92.60712409 65.90754144 -77.3125 62.125 C-77.72822266 60.60519531 -77.72822266 60.60519531 -78.15234375 59.0546875 C-78.51838081 57.70316606 -78.88425772 56.35160124 -79.25 55 C-79.43240234 54.33484375 -79.61480469 53.6696875 -79.80273438 52.984375 C-82.00874017 44.80209896 -82.551273 37.18436874 -82.625 28.75 C-82.65400391 27.65171875 -82.68300781 26.5534375 -82.71289062 25.421875 C-82.77651362 17.25855482 -81.54585691 11.96422493 -76.26953125 5.69921875 C-57.46794382 -10.84206855 -22.82755652 -4.99513173 0 0 Z M-29.3125 96.125 C-30.08599185 100.37920517 -29.7097633 102.40404068 -27.625 106.1875 C-26.861875 107.156875 -26.09875 108.12625 -25.3125 109.125 C-24.549375 110.15625 -23.78625 111.1875 -23 112.25 C-17.93887448 117.6642273 -14.3197279 119.36925096 -7 119.6875 C-0.76480369 119.49287538 4.76701688 118.12026407 9.6875 114.125 C11.60931077 110.33451609 10.17184159 106.10560235 9.375 102.125 C9.24416016 101.4134375 9.11332031 100.701875 8.97851562 99.96875 C8.00958075 94.78611268 8.00958075 94.78611268 5.6875 90.125 C-5.36804017 85.21142659 -21.09103269 86.84949842 -29.3125 96.125 Z " fill="#FE5274" transform="translate(548.3125,82.875)"/>
<path d="M0 0 C0.71196533 0.14920898 1.42393066 0.29841797 2.1574707 0.45214844 C6.56106765 1.49405428 8.8574758 2.62160955 11.6875 6.125 C12.9707774 8.84389195 13.90928454 11.65161984 14.8515625 14.50390625 C15.12970795 15.3123851 15.40785339 16.12086395 15.69442749 16.95384216 C16.5781836 19.52810613 17.44611077 22.10734474 18.3125 24.6875 C19.18856776 27.27026507 20.06795722 29.85182181 20.95199585 32.43186951 C21.50037105 34.0349608 22.04371643 35.63978354 22.58145142 37.24647522 C23.69467257 40.52312402 24.75699005 43.22923507 26.6875 46.125 C27.78513672 45.86807373 28.88277344 45.61114746 30.01367188 45.34643555 C34.16536212 44.37563018 38.3181241 43.4094758 42.47119141 42.44458008 C44.2537042 42.02979259 46.0359409 41.61381647 47.81787109 41.1965332 C59.06534849 38.563673 70.3070091 36.11673499 81.6875 34.125 C82.60474854 33.96298096 83.52199707 33.80096191 84.46704102 33.6340332 C86.91961321 33.268603 88.34650003 33.29153114 90.6875 34.125 C103.24487137 43.83632353 111.83326669 63.41728135 114.40234375 78.70703125 C115.43881703 87.49575672 115.43881703 87.49575672 114.6875 91.125 C111.35949981 95.2259827 107.15782385 97.15599925 102.51171875 99.42578125 C101.70950394 99.8252446 100.90728912 100.22470795 100.08076477 100.63627625 C97.51583574 101.9108906 94.94547399 103.17411216 92.375 104.4375 C90.68910722 105.27469442 89.00355691 106.11257886 87.31835938 106.95117188 C77.5073429 111.82031116 67.6384212 116.54879607 57.6875 121.125 C58.67222755 124.11228273 59.66611041 127.07033771 60.8125 130 C62.06837353 134.48526261 62.77167302 139.11403391 60.4765625 143.37109375 C59.29330026 147.50079614 61.08196418 150.41278202 62.8125 154.125 C63.47957913 155.64524769 64.14231218 157.1674095 64.80078125 158.69140625 C65.28925537 159.81699951 65.28925537 159.81699951 65.78759766 160.96533203 C70.35436859 171.92508668 74.84019497 186.13923226 72.6875 198.125 C69.95356106 200.61434966 67.58053085 201.63584655 63.99609375 202.40625 C63.06466553 202.60710205 62.1332373 202.8079541 61.17358398 203.01489258 C60.16755127 203.21622803 59.16151855 203.41756348 58.125 203.625 C57.07449463 203.83858154 56.02398926 204.05216309 54.94165039 204.2722168 C15.81868401 211.88945979 15.81868401 211.88945979 2.6875 209.125 C-6.90878499 201.44515372 -10.50177622 187.61230587 -13.3125 176.125 C-14.03953125 177.35863281 -14.03953125 177.35863281 -14.78125 178.6171875 C-20.36183295 187.91100449 -26.3061766 196.70450514 -34.3125 204.125 C-35.0034375 204.7746875 -35.694375 205.424375 -36.40625 206.09375 C-44.52644583 213.56433016 -44.52644583 213.56433016 -49.3125 215.125 C-61.72456981 214.15647114 -71.89702991 206.80491185 -80.3125 198.125 C-81.18841797 197.26261719 -81.18841797 197.26261719 -82.08203125 196.3828125 C-89.86656338 188.14500382 -92.71328037 177.78411438 -92.67578125 166.734375 C-92.00478993 160.06775156 -89.28733672 154.07467345 -86.3125 148.125 C-87.37984375 148.36476562 -87.37984375 148.36476562 -88.46875 148.609375 C-101.27467871 150.93132911 -115.41890681 148.30019689 -126.3125 141.125 C-134.62815334 134.46057657 -141.30935836 124.708265 -143.3125 114.125 C-144.16748171 104.69645171 -143.78624499 95.36128419 -137.79296875 87.6796875 C-134.06449193 83.50284955 -129.70512498 81.12276126 -124.75 78.625 C-123.37593994 77.92008423 -123.37593994 77.92008423 -121.97412109 77.20092773 C-107.82524233 70.1602969 -92.60712409 65.90754144 -77.3125 62.125 C-77.72822266 60.60519531 -77.72822266 60.60519531 -78.15234375 59.0546875 C-78.51838081 57.70316606 -78.88425772 56.35160124 -79.25 55 C-79.43240234 54.33484375 -79.61480469 53.6696875 -79.80273438 52.984375 C-82.00874017 44.80209896 -82.551273 37.18436874 -82.625 28.75 C-82.65400391 27.65171875 -82.68300781 26.5534375 -82.71289062 25.421875 C-82.77651362 17.25855482 -81.54585691 11.96422493 -76.26953125 5.69921875 C-57.46794382 -10.84206855 -22.82755652 -4.99513173 0 0 Z M-41.3125 10.125 C-42.69616314 10.24181055 -44.0817624 10.33966326 -45.46875 10.40625 C-46.18160156 10.44363281 -46.89445312 10.48101562 -47.62890625 10.51953125 C-49.8125 10.625 -49.8125 10.625 -51.99609375 10.73046875 C-52.70894531 10.76785156 -53.42179687 10.80523437 -54.15625 10.84375 C-54.78724609 10.87404297 -55.41824219 10.90433594 -56.06835938 10.93554688 C-59.17022977 11.19741061 -62.23434351 11.66670907 -65.3125 12.125 C-65.33311493 12.80960297 -65.35372986 13.49420593 -65.37496948 14.19955444 C-65.59080272 21.30466074 -65.82002084 28.40924437 -66.05712891 35.51367188 C-66.14392224 38.16753233 -66.22726534 40.8215079 -66.30712891 43.47558594 C-66.42230651 47.28355663 -66.54975819 51.09094522 -66.6796875 54.8984375 C-66.72982498 56.68754044 -66.72982498 56.68754044 -66.78097534 58.51278687 C-66.82086578 59.61377716 -66.86075623 60.71476746 -66.90185547 61.84912109 C-66.93294403 62.82174896 -66.96403259 63.79437683 -66.99606323 64.79647827 C-67.3125 67.125 -67.3125 67.125 -69.3125 69.125 C-70.6325 69.125 -71.9525 69.125 -73.3125 69.125 C-74.25130523 70.5667366 -75.1847539 72.0124321 -76.08227539 73.48022461 C-80.84338276 79.84569005 -89.36085064 81.51299627 -96.625 83.375 C-104.72485346 85.59511237 -112.40454023 88.14965732 -120 91.75 C-120.77061768 92.1099707 -121.54123535 92.46994141 -122.33520508 92.84082031 C-126.81391541 95.04927916 -129.99100249 97.39077203 -133.3125 101.125 C-129.29145003 109.57145134 -125.08246604 117.8090646 -120.125 125.75 C-119.72168457 126.3996875 -119.31836914 127.049375 -118.90283203 127.71875 C-118.1191207 128.95271932 -117.31684483 130.17513497 -116.49462891 131.38378906 C-115.7054762 132.54616764 -114.95699523 133.7371946 -114.25146484 134.95214844 C-113.04725537 136.94857591 -113.04725537 136.94857591 -110.3125 139.125 C-103.56096513 139.89185963 -96.55186107 137.26652862 -90.1875 135.25 C-89.34574219 134.99347656 -88.50398438 134.73695313 -87.63671875 134.47265625 C-83.68208147 133.25254335 -79.79220722 131.95025812 -75.93359375 130.453125 C-72.07079086 129.03634724 -69.390065 128.64528647 -65.3125 129.125 C-62.45335239 131.0310984 -62.04851942 132.88651455 -61.3125 136.125 C-61.83199219 136.41890625 -62.35148437 136.7128125 -62.88671875 137.015625 C-69.67988692 141.3853524 -71.84195474 146.61334214 -74.3125 154.125 C-74.55871094 154.79402344 -74.80492187 155.46304688 -75.05859375 156.15234375 C-77.58791277 164.12405956 -78.14258282 175.69725567 -74.5234375 183.3671875 C-68.9007753 191.52911649 -59.45369951 196.76677602 -50.3125 200.125 C-48.12568107 200.39470622 -48.12568107 200.39470622 -46.3125 199.125 C-44.63760685 197.04655469 -43.22904367 195.0576369 -41.8125 192.8125 C-41.38525635 192.15822021 -40.9580127 191.50394043 -40.51782227 190.82983398 C-38.00392598 186.9353516 -35.62632434 182.97495109 -33.30859375 178.9609375 C-26.17378464 166.62140442 -20.27225799 157.14127238 -6.3125 152.125 C-6.67553223 153.59706909 -6.67553223 153.59706909 -7.04589844 155.09887695 C-7.72782489 159.97330621 -5.80881686 163.31169687 -3.578125 167.54296875 C-3.18429626 168.32263504 -2.79046753 169.10230133 -2.38470459 169.90559387 C-1.12728779 172.38347475 0.15502309 174.84751387 1.4375 177.3125 C2.28542014 178.98032458 3.131791 180.64893777 3.9765625 182.31835938 C8.23346283 191.09194144 8.23346283 191.09194144 13.6875 199.125 C19.61365542 198.38423057 25.36988986 197.15188922 31.1875 195.8125 C32.15349121 195.59102295 33.11948242 195.3695459 34.11474609 195.14135742 C48.33534331 192.34747095 48.33534331 192.34747095 61.6875 187.125 C58.07952795 175.27792758 50.86242177 164.51878116 44.28149414 154.11621094 C43.60268188 153.03194824 43.60268188 153.03194824 42.91015625 151.92578125 C42.50547119 151.28809814 42.10078613 150.65041504 41.68383789 149.9934082 C39.46163968 145.82617398 39.4327805 141.79485741 39.6875 137.125 C40.6775 135.64 40.6775 135.64 41.6875 134.125 C41.99739313 131.58547029 41.99739313 131.58547029 42.0625 128.8125 C42.54471205 122.89373598 43.89062972 119.6076196 48.42797852 115.58007812 C54.32503838 110.82525719 60.58659153 107.27949514 67.3081665 103.81362915 C70.41175475 102.21022498 73.49693438 100.57222583 76.58203125 98.93359375 C77.49634918 98.44840523 77.49634918 98.44840523 78.42913818 97.95341492 C83.80848848 95.08608039 89.09342951 92.0862901 94.3125 88.9375 C95.04525146 88.50469727 95.77800293 88.07189453 96.53295898 87.62597656 C101.28909838 84.81256063 101.28909838 84.81256063 103.6875 80.125 C102.74497802 77.72793785 101.77888796 75.765929 100.48828125 73.56640625 C99.96200386 72.62715553 99.96200386 72.62715553 99.4250946 71.66893005 C98.29824165 69.66628901 97.14956313 67.67717473 96 65.6875 C95.24398826 64.3517336 94.48941365 63.01515272 93.73632812 61.67773438 C90.78523998 56.45422096 87.79161216 51.25958087 84.6875 46.125 C79.13396887 47.03659474 73.66095997 48.10965768 68.2043457 49.49414062 C29.0225662 59.32160063 29.0225662 59.32160063 14.6875 56.125 C6.10722496 49.84523349 5.25374478 36.62522879 2.9375 26.91992188 C1.53332594 21.1533008 0.13837761 15.54373723 -2.3125 10.125 C-5.65487636 9.01087455 -8.18261565 8.99562646 -11.703125 8.9921875 C-13.60384766 8.99025391 -13.60384766 8.99025391 -15.54296875 8.98828125 C-16.20345215 8.99037598 -16.86393555 8.9924707 -17.54443359 8.99462891 C-19.54133519 8.99994367 -21.53825627 8.99417181 -23.53515625 8.98828125 C-25.44361328 8.99021484 -25.44361328 8.99021484 -27.390625 8.9921875 C-29.12940918 8.99387939 -29.12940918 8.99387939 -30.90332031 8.99560547 C-34.43548597 9.1296679 -37.82067244 9.59051568 -41.3125 10.125 Z " fill="#713658" transform="translate(548.3125,82.875)"/>
<path d="M0 0 C3.48576282 0.61034757 6.5871923 1.51608461 9.86328125 2.84765625 C11.19262695 3.38422852 11.19262695 3.38422852 12.54882812 3.93164062 C13.46083984 4.30482422 14.37285156 4.67800781 15.3125 5.0625 C16.70952148 5.62807617 16.70952148 5.62807617 18.13476562 6.20507812 C20.42478917 7.13283125 22.71309996 8.06458001 25 9 C23.47913102 13.86494835 20.68294097 17.06356798 17.375 20.8125 C16.83302979 21.43342529 16.29105957 22.05435059 15.73266602 22.6940918 C-5.46503241 46.80257538 -34.77013629 68.2274835 -66.5625 74.5625 C-68.031616 74.86340921 -69.50069093 75.16451901 -70.96972656 75.46582031 C-104.87503923 82.34162545 -139.20046491 86.00150053 -173.79080391 86.26036072 C-176.64882995 86.28187032 -179.50676337 86.30883771 -182.36473083 86.33703613 C-189.45485576 86.40593234 -196.54505025 86.46592541 -203.63525391 86.52606201 C-209.65678449 86.57747584 -215.67826361 86.63242951 -221.69972038 86.69187927 C-224.4844129 86.71798144 -227.26911206 86.73906825 -230.05384827 86.7598877 C-239.22560309 86.84164989 -248.33791454 87.10857601 -257.48709106 87.77130127 C-263.75745552 88.17951692 -270.03057699 88.24359343 -276.3125 88.25 C-277.01855377 88.25100708 -277.72460754 88.25201416 -278.45205688 88.25305176 C-304.11671386 88.22898771 -329.84075439 86.19687462 -355.3125 83.125 C-356.50770264 82.98803711 -357.70290527 82.85107422 -358.93432617 82.70996094 C-371.234168 81.08808076 -382.35855925 76.77558819 -393.25 70.9375 C-394.13623047 70.46634766 -395.02246094 69.99519531 -395.93554688 69.50976562 C-410.13820046 61.81539441 -422.96470205 52.74224941 -435 42 C-435.85335938 41.2678125 -436.70671875 40.535625 -437.5859375 39.78125 C-442.17153443 35.82026927 -446.26855117 31.78390875 -450 27 C-450 26.34 -450 25.68 -450 25 C-447.64648632 23.89442408 -445.2922159 22.79051018 -442.9375 21.6875 C-441.95233398 21.2244043 -441.95233398 21.2244043 -440.94726562 20.75195312 C-439.62320712 20.13231984 -438.29684613 19.5175835 -436.96826172 18.90771484 C-435.66650461 18.30737585 -434.37100055 17.69326867 -433.08251953 17.06494141 C-430.67526122 15.9355548 -428.57443442 15.01918334 -425.89453125 14.9296875 C-422.8140911 16.6699774 -420.85457182 19.39716732 -418.6875 22.125 C-417.70120206 23.32324983 -416.71293264 24.51987975 -415.72265625 25.71484375 C-415.24973145 26.28831543 -414.77680664 26.86178711 -414.28955078 27.45263672 C-399.70157907 44.95709805 -378.63024188 54.51506073 -358 63 C-357.28489258 63.30035156 -356.56978516 63.60070312 -355.83300781 63.91015625 C-336.66066301 71.93149613 -318.76061359 75.24656326 -298 75.3125 C-297.19899872 75.31511841 -296.39799744 75.31773682 -295.57272339 75.32043457 C-269.98832218 75.3291225 -244.48453064 73.04575495 -219 71 C-216.82764004 70.82743216 -214.65527686 70.65490477 -212.48291016 70.48242188 C-191.56536182 68.81209843 -170.67466163 66.9539442 -149.81375122 64.67858887 C-140.62407776 63.67698053 -131.45843602 62.85978598 -122.2265625 62.36328125 C-95.98837064 60.92569032 -71.44470549 57.987755 -48 45 C-47.40010254 44.6798291 -46.80020508 44.3596582 -46.18212891 44.02978516 C-26.46425887 33.44160112 -12.78130064 18.1365942 0 0 Z " fill="#392E39" transform="translate(762,643)"/>
<path d="M0 0 C2.5625 0.9375 2.5625 0.9375 4.3125 3.5 C5.71264219 7.35039103 6.33778026 10.87892537 6.5625 14.9375 C6.64177734 16.33742188 6.64177734 16.33742188 6.72265625 17.765625 C7.07231552 29.62363492 3.07828085 38.54176061 -2.4375 48.875 C-3.01564453 49.97038086 -3.59378906 51.06576172 -4.18945312 52.19433594 C-9.35928414 61.92394656 -14.7576701 71.49732356 -20.4375 80.9375 C-20.96375977 81.8145459 -21.49001953 82.6915918 -22.03222656 83.59521484 C-38.46896103 110.87556127 -38.46896103 110.87556127 -46.4375 117.9375 C-49.93652056 118.67767743 -52.18394345 118.72097285 -55.28125 116.78515625 C-64.19657821 109.31308814 -71.7969718 99.87156533 -79.06640625 90.83984375 C-81.75581054 87.54787112 -84.52917086 84.33742018 -87.3125 81.125 C-92.27259294 75.37995803 -97.00505458 69.48954755 -101.66015625 63.49609375 C-104.03012295 60.4463496 -106.44351445 57.43412748 -108.86962891 54.42895508 C-113.68712109 48.45592107 -118.4229688 42.42495405 -123.0625 36.3125 C-123.57159912 35.64943848 -124.08069824 34.98637695 -124.60522461 34.30322266 C-130.73402121 26.16140909 -130.73402121 26.16140909 -130.0625 21.125 C-129.85625 20.403125 -129.65 19.68125 -129.4375 18.9375 C-122.47905512 19.32185599 -117.75893573 21.52279304 -111.75 24.9375 C-110.10353396 25.8600335 -108.45388035 26.77690578 -106.80078125 27.6875 C-106.08188721 28.09484375 -105.36299316 28.5021875 -104.62231445 28.921875 C-97.65424394 32.16102723 -88.59917383 32.04935793 -81.30859375 30.1015625 C-74.70544426 27.53606244 -69.21182288 23.92291996 -63.6171875 19.609375 C-59.81358053 16.69191302 -57.24524332 16.35725512 -52.4375 16.9375 C-48.98744981 20.75071336 -48.14877548 23.95857163 -47.4375 28.9375 C-35.53747345 28.7263705 -25.0840159 26.37556306 -16.25 17.96484375 C-12.21087715 13.44694556 -8.8758573 8.44302563 -5.86328125 3.1953125 C-4.06417563 0.34631785 -3.3571103 -0.08607975 0 0 Z " fill="#3A2F3A" transform="translate(610.4375,555.0625)"/>
<path d="M0 0 C3.55896569 -0.06039759 7.11739529 -0.09753012 10.67675781 -0.12548828 C12.38798828 -0.14530762 12.38798828 -0.14530762 14.13378906 -0.16552734 C27.68473443 -0.1773864 40.09761075 2.23464504 50.23925781 11.93701172 C53.66865276 15.67234854 56.40371925 19.60202333 58.80175781 24.06201172 C59.39988281 25.13451172 59.99800781 26.20701172 60.61425781 27.31201172 C62.6457093 33.72712168 63.06749752 40.21409738 60.30175781 46.43701172 C53.45271765 53.62850389 46.15825289 56.90074694 36.80175781 60.06201172 C35.78855469 60.44615234 34.77535156 60.83029297 33.73144531 61.22607422 C15.24975546 67.53800269 -6.0530965 66.51199488 -24.26074219 59.93701172 C-28.47289958 58.45204015 -32.20660667 57.75244238 -36.66308594 57.50341797 C-37.30060791 57.4665538 -37.93812988 57.42968964 -38.5949707 57.39170837 C-47.27394266 56.91102626 -55.9621574 56.59055592 -64.64736938 56.24688721 C-134.76669047 53.43428678 -134.76669047 53.43428678 -157.19824219 42.06201172 C-156.44824219 37.31201172 -156.44824219 37.31201172 -154.19824219 35.06201172 C-150.96816187 35.14524471 -147.84717757 35.37226797 -144.63574219 35.68701172 C-142.36888006 35.88826552 -140.10194595 36.08870942 -137.83496094 36.28857422 C-137.1924942 36.34676331 -136.55002747 36.40495239 -135.88809204 36.46490479 C-126.6556572 37.30102011 -117.41537945 38.04453745 -108.17593384 38.79837036 C-104.94848338 39.06199202 -101.72118786 39.32745638 -98.49389648 39.59301758 C-85.48871568 40.65873102 -72.48285863 41.65710062 -59.45898438 42.46630859 C-58.4190332 42.53269531 -57.37908203 42.59908203 -56.30761719 42.66748047 C-55.43073242 42.72057373 -54.55384766 42.77366699 -53.65039062 42.82836914 C-51.11474888 43.06996703 -48.68549953 43.51983863 -46.19824219 44.06201172 C-46.52824219 43.40201172 -46.85824219 42.74201172 -47.19824219 42.06201172 C-48.9036432 30.91537004 -45.33169448 22.14374398 -39.19824219 13.06201172 C-33.06680272 5.492471 -25.43999626 1.92421387 -15.88964844 0.60498047 C-10.59137569 0.18448263 -5.31231333 0.10300211 0 0 Z " fill="#FECBCB" transform="translate(310.1982421875,554.93798828125)"/>
<path d="M0 0 C6.67623771 7.13612107 11.3125 17.23495199 11.3125 27 C10.9825 27.99 10.6525 28.98 10.3125 30 C10.9420459 29.84764893 11.5715918 29.69529785 12.22021484 29.53833008 C16.39930246 28.81080061 20.55691512 28.61444147 24.7890625 28.38671875 C26.73960401 28.27420234 28.69012395 28.16131137 30.640625 28.0480957 C31.66736328 27.98949371 32.69410156 27.93089172 33.75195312 27.87051392 C53.46356456 26.73805555 73.10627836 25.23362871 92.75244141 23.27026367 C94.03678574 23.14347733 94.03678574 23.14347733 95.34707642 23.01412964 C96.92377961 22.85770254 98.50013918 22.69774591 100.07601929 22.53323364 C113.26944124 21.21770593 113.26944124 21.21770593 116.3125 23.5 C116.6425 23.995 116.9725 24.49 117.3125 25 C116.28433402 28.38996753 115.20330597 29.06059096 112.0390625 30.81640625 C110.67902334 31.41495076 109.31125943 31.99615465 107.9375 32.5625 C107.22086182 32.86623535 106.50422363 33.1699707 105.76586914 33.48291016 C94.81574935 37.99859952 83.7883703 39.99843356 71.96899414 40.38549805 C70.30273586 40.44665385 68.63648135 40.50791245 66.9702301 40.56925964 C66.09558168 40.60023428 65.22093327 40.63120892 64.31978035 40.66312218 C59.63382399 40.83284965 54.94883936 41.02672582 50.26367188 41.21679688 C44.32653564 41.45683958 38.38944106 41.68981582 32.45092773 41.89331055 C27.63063819 42.05913048 22.8120231 42.25157189 17.99343681 42.46094704 C16.17328384 42.53535634 14.35272227 42.6004652 12.53187752 42.65540123 C1.69428278 42.98799236 -7.41744764 44.30267064 -17.42550659 48.60487366 C-25.54583341 52.07786714 -33.25373374 52.31364778 -42 52.25 C-43.5768457 52.26160156 -43.5768457 52.26160156 -45.18554688 52.2734375 C-61.5086048 52.23330706 -81.3067661 49.12804155 -93.6875 37.5625 C-98.08808717 32.74773993 -99.1721935 27.89172705 -99 21.48828125 C-97.58978036 10.25940738 -91.27723209 0.97604654 -83.10546875 -6.4921875 C-76.5041731 -10.60866589 -69.12198102 -11.58874859 -61.5 -12.1875 C-60.55382812 -12.26500488 -59.60765625 -12.34250977 -58.6328125 -12.42236328 C-37.30786601 -14.0245513 -17.09470454 -15.01459669 0 0 Z " fill="#FECBCB" transform="translate(816.6875,546)"/>
<path d="M0 0 C7.13093284 -0.02561678 14.26185356 -0.04297736 21.39282227 -0.05493164 C23.81242313 -0.05992184 26.23202104 -0.06671635 28.65161133 -0.07543945 C54.43195717 -0.16597155 54.43195717 -0.16597155 67 1 C68.24283483 17.95551776 68.11940952 34.91112719 68.06866455 51.89971924 C68.05827519 55.75540611 68.05383412 59.61109992 68.04882812 63.46679688 C68.03823187 70.97788301 68.0212565 78.48893564 68 86 C63.86074695 86.43713861 59.72056864 86.86377757 55.5793457 87.28173828 C54.17802541 87.42453782 52.77696743 87.5699415 51.3762207 87.71826172 C41.53975977 88.75739917 31.89469439 89.1930149 22 89 C21.98018066 87.82646973 21.96036133 86.65293945 21.93994141 85.44384766 C21.45140626 57.26353909 20.49582114 29.14467343 19 1 C12.73 1 6.46 1 0 1 C0 0.67 0 0.34 0 0 Z " fill="#8D5476" transform="translate(506,336)"/>
<path d="M0 0 C0.03963867 0.70680908 0.07927734 1.41361816 0.12011719 2.1418457 C1.08967039 18.78361037 2.81281849 35.09243633 5.45019531 51.55322266 C6.41692995 57.61377309 7.33500429 63.68146186 8.25 69.75 C8.42515137 70.8747876 8.60030273 71.9995752 8.78076172 73.15844727 C9.59008141 78.5013428 10.21618825 83.59529371 10 89 C-3.28293227 89.28261558 -17.05719146 89.41342908 -30 86 C-30.17015625 85.0613208 -30.3403125 84.1226416 -30.515625 83.15551758 C-35.12323817 57.90523071 -40.68431768 33.3305631 -49 9 C-14.48034934 0 -14.48034934 0 0 0 Z " fill="#8D5476" transform="translate(501,337)"/>
<path d="M0 0 C13.92530122 1.06257319 27.36308225 2.98259393 41 6 C40.67 6.66 40.34 7.32 40 8 C40.08755795 9.98881633 40.24193386 11.97479592 40.42578125 13.95703125 C41.1313866 22.87083797 41.19544798 31.74933578 41.1875 40.6875 C41.1882251 41.52162415 41.1889502 42.35574829 41.18969727 43.21514893 C41.18854164 55.24379811 40.84741854 67.09074836 39 79 C30.00258188 80.90892888 21.08419382 82.28996757 11.91796875 83.1015625 C10.95838257 83.18962158 9.99879639 83.27768066 9.01013184 83.3684082 C6.67370741 83.58233183 4.33702901 83.79280457 2 84 C1.97494385 82.69893311 1.9498877 81.39786621 1.92407227 80.05737305 C1.4073428 53.36741464 0.83189446 26.68214553 0 0 Z " fill="#8D5476" transform="translate(588,337)"/>
<path d="M0 0 C3.85830808 0.33814385 6.90626552 2.65838386 10.1875 4.5625 C19.96165135 9.8327728 30.31237745 9.00392923 41 7 C37.60430908 21.05935188 32.15159443 33.99128514 25.9375 47 C25.430979 48.06234863 24.92445801 49.12469727 24.40258789 50.21923828 C21.57305603 56.05327712 18.5533249 61.57547465 15 67 C6.93079053 60.27565877 -0.08506036 53.10507876 -6.65625 44.90234375 C-9.00862941 41.98931392 -11.43775671 39.15466504 -13.875 36.3125 C-17.89266049 31.50520498 -21.56268008 26.52807405 -25.125 21.375 C-25.61081543 20.67544189 -26.09663086 19.97588379 -26.59716797 19.25512695 C-30 14.25317339 -30 14.25317339 -30 12 C-29.15179687 11.86464844 -28.30359375 11.72929688 -27.4296875 11.58984375 C-17.96363418 9.85266693 -7.02906526 7.02906526 0 0 Z " fill="#A880A9" transform="translate(548,590)"/>
<path d="M0 0 C9.81847756 2.3282969 17.95223319 5.25478259 23.9375 13.75 C26.83166423 22.60273764 24.6056598 29.41963193 20.78515625 37.7109375 C17.73994621 43.32158706 14.13392764 48.61899297 8 51 C-1.5822257 52.29775025 -8.54654851 49.5966104 -16.25 44.125 C-22.12909545 39.4170391 -25.7382015 35.19799218 -26.90234375 27.63671875 C-27.23121201 18.7572757 -22.31479721 10.78992459 -17 4 C-11.62419246 -1.13863956 -7.12113678 -0.923259 0 0 Z " fill="#392F39" transform="translate(724,450)"/>
<path d="M0 0 C0.928125 0.144375 1.85625 0.28875 2.8125 0.4375 C3.1425 0.1075 3.4725 -0.2225 3.8125 -0.5625 C6.875 -1.125 6.875 -1.125 10.8125 -0.5625 C17.97904823 4.61946565 24.99030412 13.69095977 26.8125 22.4375 C27.76479251 30.24927447 25.7856023 36.09903279 21.375 42.53515625 C15.50155492 49.86284374 6.36867797 56.52227516 -3.09765625 57.84375 C-15.74114094 58.21976441 -23.95911478 53.09278513 -33.12890625 44.78125 C-37.45196907 39.85935685 -38.76630531 35.46883021 -38.52734375 29.07421875 C-37.28107564 19.40489724 -31.39635498 10.11926847 -24.21875 3.66796875 C-16.93318452 -1.68815672 -8.66767142 -1.38754823 0 0 Z M-26.1875 22.4375 C-26.96099185 26.69170517 -26.5847633 28.71654068 -24.5 32.5 C-23.736875 33.469375 -22.97375 34.43875 -22.1875 35.4375 C-21.424375 36.46875 -20.66125 37.5 -19.875 38.5625 C-14.81387448 43.9767273 -11.1947279 45.68175096 -3.875 46 C2.36019631 45.80537538 7.89201688 44.43276407 12.8125 40.4375 C14.73431077 36.64701609 13.29684159 32.41810235 12.5 28.4375 C12.36916016 27.7259375 12.23832031 27.014375 12.10351562 26.28125 C11.13458075 21.09861268 11.13458075 21.09861268 8.8125 16.4375 C-2.24304017 11.52392659 -17.96603269 13.16199842 -26.1875 22.4375 Z " fill="#713658" transform="translate(545.1875,156.5625)"/>
<path d="M0 0 C3.74714995 1.80613085 7.26388225 3.95936777 10.8125 6.125 C12.95383957 7.4046295 15.09578851 8.68323971 17.23828125 9.9609375 C18.3463916 10.62577148 19.45450195 11.29060547 20.59619141 11.97558594 C25.08892635 14.64763859 29.62267204 17.24473967 34.16015625 19.83984375 C43.55194952 25.21129042 52.87080601 30.65562157 61.99609375 36.46875 C65.06895161 38.42528081 68.17101125 40.32863314 71.28515625 42.21875 C101.67826 60.69564999 101.67826 60.69564999 107 74 C107 75.32 107 76.64 107 78 C82.2011629 68.50851263 58.69855532 53.59069727 36 40 C35.19755859 39.52014648 34.39511719 39.04029297 33.56835938 38.54589844 C25.25740187 33.5471755 17.3788681 28.32474409 10 22 C8.83111083 21.01517182 7.66180947 20.03083276 6.4921875 19.046875 C5.24400088 17.99051701 3.99660246 16.93322698 2.75 15.875 C2.1710498 15.38402832 1.59209961 14.89305664 0.99560547 14.38720703 C-0.687134 12.94340786 -2.34710093 11.4778287 -4 10 C-4.59103516 9.48469727 -5.18207031 8.96939453 -5.79101562 8.43847656 C-7.484375 6.8828125 -7.484375 6.8828125 -10 4 C-9.78222656 1.88232422 -9.78222656 1.88232422 -9 0 C-5.87964114 -1.56017943 -3.22584199 -0.94882005 0 0 Z " fill="#000000" transform="translate(788,618)"/>
<path d="M0 0 C0.94875 0.45375 1.8975 0.9075 2.875 1.375 C2.67233942 6.08906138 0.52937942 8.12515747 -2.73217773 11.18261719 C-3.37743408 11.76172852 -4.02269043 12.34083984 -4.6875 12.9375 C-5.35789307 13.54883789 -6.02828613 14.16017578 -6.71899414 14.79003906 C-32.11448674 37.58018486 -63.1297733 52.83360538 -93.05029297 68.73339844 C-95.75116777 70.17540909 -98.44276726 71.63234528 -101.12890625 73.1015625 C-101.83273438 73.48465576 -102.5365625 73.86774902 -103.26171875 74.26245117 C-105.02156739 75.22202382 -106.77851649 76.1869093 -108.53515625 77.15234375 C-111.125 78.375 -111.125 78.375 -114.125 78.375 C-113.56321479 74.65153988 -112.60402053 72.11665074 -110.5 69 C-109.80003906 67.93652344 -109.80003906 67.93652344 -109.0859375 66.8515625 C-103.638348 59.97153911 -97.4454311 55.32444224 -90 50.75 C-89.04150146 50.15098877 -88.08300293 49.55197754 -87.09545898 48.93481445 C-84.11074119 47.07263399 -81.11816646 45.22356153 -78.125 43.375 C-76.26381793 42.21565405 -74.40312624 41.05552041 -72.54296875 39.89453125 C-67.41644871 36.7003756 -62.2745743 33.53182716 -57.125 30.375 C-56.49174805 29.98570312 -55.85849609 29.59640625 -55.20605469 29.1953125 C-45.00660764 22.93980385 -34.60005813 17.0414795 -24.19702148 11.13354492 C-23.32408699 10.63702675 -23.32408699 10.63702675 -22.43351746 10.13047791 C-20.72893742 9.16142627 -19.02317019 8.19446388 -17.31738281 7.22753906 C-13.55274428 5.04292013 -9.87948828 2.72965237 -6.23413086 0.35180664 C-3.73695694 -0.80471528 -2.61958249 -0.73642228 0 0 Z " fill="#000000" transform="translate(305.125,639.625)"/>
<path d="M0 0 C7.37364178 2.58915376 11.8790952 4.90272164 15.4375 12.01953125 C16.18245185 21.229845 11.1009159 30.01609284 5.5 37.14453125 C1.00901286 41.82511152 -3.95455143 44.19589952 -10.4375 44.58203125 C-17.01748793 44.2783395 -22.70466152 41.72085525 -27.48828125 37.19921875 C-32.09487726 31.94396125 -33.02729556 28.42496691 -32.9765625 21.3984375 C-32.0173006 13.57049837 -27.74216753 5.93157467 -21.5625 1.01953125 C-14.8212473 -3.77913062 -7.62202328 -2.0977279 0 0 Z " fill="#3A2F3A" transform="translate(373.5625,473.98046875)"/>
<path d="M0 0 C3.23008032 0.08323299 6.35106461 0.31025625 9.5625 0.625 C11.82936213 0.8262538 14.09629623 1.0266977 16.36328125 1.2265625 C17.00574799 1.28475159 17.64821472 1.34294067 18.31015015 1.40289307 C27.54239894 2.23899154 36.78249424 2.98233944 46.02175903 3.73608398 C49.25089633 4.00007328 52.47982501 4.26651275 55.70874023 4.53320312 C64.92463321 5.29071835 74.1391406 6.03842386 83.3671875 6.6328125 C84.05087402 6.67718445 84.73456055 6.7215564 85.43896484 6.76727295 C88.47990158 6.96252896 91.52097954 7.1470426 94.56347656 7.31640625 C99.97830578 7.64734062 104.90800929 8.05553102 110 10 C111.01351664 11.65848177 112.01120795 13.32665961 113 15 C115.3086007 16.72419729 117.68705496 18.2497246 120.13671875 19.765625 C120.75160156 20.17296875 121.36648438 20.5803125 122 21 C122 21.33 122 21.66 122 22 C100.16084159 21.6970503 78.34146999 21.14329243 56.53515625 19.86758423 C54.49784179 19.74914365 52.4602393 19.63554099 50.42236328 19.52719116 C31.36605582 18.49823415 14.16626847 15.7028989 -3 7 C-2.25 2.25 -2.25 2.25 0 0 Z " fill="#000000" transform="translate(156,590)"/>
<path d="M0 0 C0.495 0.7425 0.495 0.7425 1 1.5 C-0.02816598 4.88996753 -1.10919403 5.56059096 -4.2734375 7.31640625 C-5.63347666 7.91495076 -7.00124057 8.49615465 -8.375 9.0625 C-9.09163818 9.36623535 -9.80827637 9.6699707 -10.54663086 9.98291016 C-23.45736394 15.30713138 -36.1618189 16.61175172 -49.98046875 17.25390625 C-51.35745469 17.31958308 -52.73443312 17.38541769 -54.11140442 17.45140076 C-56.99856604 17.58892059 -59.88583317 17.72389463 -62.77319336 17.85717773 C-65.69297726 17.99218639 -68.61254832 18.13082208 -71.53198242 18.27319336 C-87.69144262 19.06113026 -103.81578305 19.75389412 -120 19.5 C-119.37818848 19.0352124 -118.75637695 18.5704248 -118.11572266 18.09155273 C-116.16262311 16.62233326 -114.25511224 15.12373858 -112.375 13.5625 C-111.78460937 13.07910156 -111.19421875 12.59570312 -110.5859375 12.09765625 C-108.86858196 10.57870149 -108.86858196 10.57870149 -108.1640625 8.37109375 C-107 6.5 -107 6.5 -104.52563477 5.92138672 C-100.16225685 5.39987226 -95.81263018 5.12414607 -91.42578125 4.88671875 C-89.47849382 4.77422117 -87.53122913 4.66132945 -85.58398438 4.5480957 C-84.05004028 4.46019272 -84.05004028 4.46019272 -82.48510742 4.37051392 C-62.79891645 3.23490323 -43.1809472 1.73114958 -23.55981445 -0.22973633 C-22.70362015 -0.31426056 -21.84742584 -0.39878479 -20.96528625 -0.48587036 C-19.38863427 -0.64230109 -17.81232564 -0.80225824 -16.23649597 -0.96676636 C-3.04304952 -2.28228714 -3.04304952 -2.28228714 0 0 Z " fill="#000000" transform="translate(933,569.5)"/>
</svg>
